<?xml version="1.0" encoding="UTF-8"?>
<svg width="1200pt" height="1200pt" version="1.1" viewBox="0 0 1200 1200" xmlns="http://www.w3.org/2000/svg">
 <path d="m705.84 364.68v-23.52h-47.039v23.52z"/>
 <path d="m635.28 364.68h23.52v23.52h-23.52z"/>
 <path d="m635.28 411.72v-23.52h-47.043v23.52z"/>
 <path d="m564.72 435.24h23.52v-23.52h-70.559v23.52z"/>
 <path d="m352.92 929.4h23.52v23.52h47.039l23.523 0.003906h376.56v-23.52h23.52v-23.52h23.52v-117.6l0.003906-23.523v-470.64h-23.52v-23.52h-23.52v-23.52h-23.52l-23.523-0.003906h-400.08v23.52h-23.52v23.52h-23.52v611.75h23.52zm23.523-94.078v-23.52h23.52v47.039h70.68v-47.039h-47.16v-23.52h47.16v23.52h23.52v47.039h-23.52v23.52h-70.68v-23.52h-23.52zm0-141.24v-23.52h23.52v47.039h23.52l23.52 0.003906h23.641v-47.039l-23.641-0.003906h-23.52v-23.52h47.16v23.52h23.52v47.039h-23.52v23.641h-70.68v-23.641h-23.52zm0-141.12v-23.52h23.52v47.039h70.68v-47.039h-23.641v-23.52h23.641v23.52h23.52v47.039h-23.52v23.52h-70.68v-23.52h-23.52zm0-141.24v-70.559h23.52v-23.52h400.08v23.52h23.52v94.078h-23.52v23.641h-400.08v-23.641h-23.52zm447.12 141.24v23.52h-23.52v23.52h-70.68v-23.52h-23.52v-47.039h23.52v47.039h70.68v-47.039h-23.52v-23.52h23.52v23.52h23.52zm0 141.12v23.52h-23.52v23.641h-70.68v-23.641h-23.52v-47.039h23.52v47.039l23.641 0.003906h47.039v-47.039l-23.52-0.003906h-23.52v-23.52h47.039v23.52h23.52zm0 141.24v23.52h-23.52v23.52h-70.68v-23.52h-23.52v-47.039h23.52v47.039h70.68v-47.039h-23.52v-23.52h23.52v23.52h23.52zm-282.36 23.52v-47.039h23.52v47.039h70.559v-47.039h-47.039v-23.52h47.039v23.52h23.52v47.039h-23.52v23.52h-70.559v-23.52zm0-164.76v-23.52h23.52v47.039h70.559v-47.039h-23.52v-23.52h23.52v23.52h23.52v47.039h-23.52v23.641h-70.559v-23.641h-23.52zm0-141.12v-23.52h23.52v47.039h70.559v-47.039h-47.039v-23.52h47.039v23.52h23.52v47.039h-23.52v23.52h-70.559v-23.52h-23.52z"/>
</svg>
