<?xml version="1.0" encoding="UTF-8"?>
<svg width="1200pt" height="1200pt" version="1.1" viewBox="0 0 1200 1200" xmlns="http://www.w3.org/2000/svg">
 <path d="m941.16 635.34v-23.641h-23.52v-47.039h-23.52v-23.52h-164.76v23.52h-94.078v-23.52h-23.52v-94.078h-23.52v94.078h-23.52v23.52h-94.078v-23.52h-164.64v23.52h-23.52v47.039h-23.641v47.16h-23.52v94.078h23.52v47.039h23.641v47.16l23.52 0.003906v47.039h23.52v47.039h23.52v23.52h47.039v-23.52h23.52v-23.52h23.52v-47.039h23.52v-47.16h23.52v-47.039h47.039v-23.52h47.039v-23.52h23.52v23.52h47.039v23.52h47.039v47.039h23.52v47.16h23.648v47.039h23.52v23.52h23.52v23.52h47.039v-23.52h23.52v-47.039h23.52v-47.039h23.52v-47.16h23.52v-47.039h23.52v-94.078h-23.52zm-376.44 70.559h-47.039v-23.52h47.039zm282.36-23.52h-23.52v-23.52h-23.52v-23.52h47.039zm0 70.562v23.52h-47.039v-47.039h23.52v23.52zm-47.039-47.043h-23.52v23.52l-23.52 0.003906v-47.039h47.039zm-470.52-23.52h23.52v-47.039h47.039v47.039h47.039v47.039h-47.039v47.039h-47.039v-47.039l-23.52 0.003906h-23.52v-47.039zm305.76 0h47.039v23.52h-47.039zm235.32 47.043h-23.52v-23.52h23.52v-23.52h23.52v47.039z"/>
 <path d="m823.56 517.62h47.043v-23.52h-94.082v23.52z"/>
 <path d="m658.8 235.26h23.52v23.52h-23.52z"/>
 <path d="m658.8 282.3v-23.52h-23.52v47.039h23.52z"/>
 <path d="m635.28 423.54v-47.16h-23.52v70.68h23.52z"/>
 <path d="m611.76 305.82h23.52v23.52h-23.52z"/>
 <path d="m611.76 329.34h-23.523v47.039h23.523z"/>
 <path d="m353.04 729.42h47.039v-47.043h-47.039z"/>
 <path d="m376.56 517.62h47.043v-23.52h-94.082v23.52z"/>
</svg>
