<?xml version="1.0" encoding="UTF-8"?>
<svg width="1200pt" height="1200pt" version="1.1" viewBox="0 0 1200 1200" xmlns="http://www.w3.org/2000/svg">
 <path d="m964.68 399.96v-23.52h-23.52v-47.039h-23.52v-23.52h-47.039v-23.52h-47.039v-23.52h-23.52l-23.523-0.003906h-47.16v23.52h-47.039v23.52h-47.039v23.52h-23.52v47.039h-23.52v-47.039h-23.52v-23.52h-47.039v-23.52h-47.039v-23.52h-94.203v23.52h-47.039v23.52h-47.039v23.52h-23.52v47.039h-23.52v47.039h-23.52l-0.003907 23.523v70.68h23.52v70.559h23.52v47.039h47.039v47.039h47.039v47.039h47.039v47.039h23.52l23.523 0.003907v47.16h47.16v47.039h47.039v47.039h47.039v23.52h23.52v-23.52h47.039v-47.039h47.039v-47.039h47.164v-47.16h47.039v-47.039h47.039v-47.039h47.039v-47.039h47.039v-47.039h23.52v-70.559h23.52v-47.16l0.003907-23.523v-23.52h-23.52zm-23.52 47.039v47.039h-23.52v-70.559h-23.52v-47.039h-47.039v-23.52h-47.039v-23.52l-23.523-0.003906h-23.52v23.52h-47.16v-23.52h47.16v-23.52h47.039v23.52h47.039v23.52h47.039v23.52h23.52v47.039h23.52z"/>
</svg>
