<?xml version="1.0" encoding="UTF-8"?>
<svg width="1200pt" height="1200pt" version="1.1" viewBox="0 0 1200 1200" xmlns="http://www.w3.org/2000/svg">
 <path d="m982.64 458.59 33.262-33.262-33.262-33.262 33.348-33.348-183.03-183.03-33.348 33.348-33.266-33.266-33.262 33.262-33.262-33.262-216.29 216.29 33.262 33.262-33.266 33.266 33.266 33.266-33.262 33.262 16.629 16.629 16.641 16.629-66.523 66.523-16.715 16.719-232.93 232.93-16.629 16.625 16.633 16.633-16.633 16.633 16.715 16.715-16.633 16.633 66.527 66.527 16.633-16.633 16.629 16.629 33.262-33.262-16.629-16.629 16.633-16.633-16.633-16.633 16.715-16.715 16.633 16.633 16.633-16.633 16.629 16.629 33.262-33.262-16.629-16.629 16.633-16.633 16.629 16.629 33.262-33.262-16.629-16.629 16.633-16.633-16.633-16.633 16.629-16.629 16.633 16.633 16.633-16.633 16.629 16.629 16.633-16.633-33.262-33.262 16.629-16.629 16.633 16.633 16.633-16.633 16.629 16.629 83.238-83.238 33.266 33.266 33.262-33.262 33.262 33.262 33.266-33.266 16.633 16.629 16.633 16.633 216.29-216.29-16.633-16.633zm-216.29-216.29 16.633 16.629 16.633 16.633 33.262-33.262 116.5 116.5-33.262 33.262 33.266 33.266-66.527 66.527-183.03-183.03 49.895-49.895zm-532.37 665.59 249.64-249.64 16.633 16.633-266.27 266.27-16.637-16.629z"/>
</svg>
