<?xml version="1.0" encoding="UTF-8"?>
<svg width="1200pt" height="1200pt" version="1.1" viewBox="0 0 1200 1200" xmlns="http://www.w3.org/2000/svg">
 <path d="m941.07 791.3-33.262-33.262-16.633 16.629-16.633 16.633 16.633 16.633 16.633 16.629 16.629 16.633 16.633 16.629 33.262-33.262z"/>
 <path d="m708.14 957.7-16.633-16.629 16.633-16.633-33.262-33.262-33.262 33.262 16.629 16.633-16.629 16.629 16.629 16.633-16.629 16.633 33.262 33.262 33.262-33.262-16.633-16.633z"/>
 <path d="m1024.3 608.27 16.633-16.633 16.633 16.633 16.629-16.633 16.633 16.633 16.629-16.633 16.633-16.629-33.262-33.262-16.633 16.629-16.629-16.629-16.633 16.629-16.633-16.629-33.262 33.262 16.633 16.629z"/>
 <path d="m741.41 857.91 199.66-199.66-33.266-33.266 33.344-33.344-33.262-33.262 33.266-33.266-33.344-33.344 33.262-33.262-199.66-199.66-33.262 33.262-33.266-33.266-33.266 33.266-33.262-33.262-33.344 33.344-33.262-33.262-199.66 199.66 33.262 33.262-33.266 33.266 33.262 33.262-33.262 33.262 33.266 33.266-49.895 49.895-16.625 16.629 16.715 16.715-16.633 16.633 16.633 16.633-16.633 16.633 49.895 49.895-16.629 16.629 49.895 49.895 16.629-16.629 49.891 49.891 33.266-33.266 16.633 16.633 66.523-66.523 33.344 33.344 33.262-33.262 33.262 33.262 33.266-33.266 16.633 16.633zm133.13-366.14-16.633 16.633 33.348 33.348-16.629 16.629 16.629 16.629-33.344 33.344 33.262 33.262-16.633 16.633-33.262-33.262 16.633-16.633-16.629-16.629 33.344-33.344-33.348-33.348 16.629-16.629-16.629-16.629 33.266-33.266 16.629 16.629zm-299.53 299.53-16.633 16.633-33.262-33.262-33.262 33.262-16.629-16.629-49.895 49.895-16.633-16.633 49.895-49.895 16.633 16.633 49.895-49.895-16.633-16.633 16.629-16.629-33.262-33.262-16.629 16.629-16.633-16.633-49.895 49.895 16.633 16.633-49.895 49.895-16.633-16.633 49.895-49.895-16.633-16.633 33.262-33.262-33.262-33.262 16.633-16.633-16.715-16.715 16.629-16.629 16.715 16.715 16.633-16.633 16.633 16.633 16.633-16.633 16.629 16.629 16.715-16.715-33.262-33.262 16.633-16.633-16.715-16.715 16.629-16.629-16.633-16.633 16.633-16.633 16.633 16.633 16.633-16.633 66.609 66.609 16.629-16.629 16.633 16.633 16.633-16.633 33.262 33.262-16.633 16.633 16.633 16.633-16.629 16.629 66.523 66.523-16.633 16.633 16.715 16.715-16.633 16.633-16.715-16.715-16.629 16.629-16.633-16.633-16.633 16.633-33.262-33.262-16.715 16.715 16.633 16.633-16.633 16.633 16.629 16.629-16.633 16.633 16.633 16.633-16.629 16.629z"/>
 <path d="m575.01 758.04 16.629-16.633-16.629-16.629 16.629-16.633-16.629-16.629 16.715-16.719 16.633 16.633 16.629-16.633 33.262 33.262 16.633-16.629 16.629 16.629 16.633-16.629-66.523-66.523 16.629-16.633-16.629-16.633 16.629-16.629-16.629-16.633-16.633-16.629-16.629 16.629-16.633-16.629-16.633 16.629-33.262-33.262-16.629-16.633-16.719-16.715-16.629 16.633 16.715 16.715-16.629 16.633 33.262 33.262-16.633 16.629 16.633 16.633-16.719 16.715-16.629-16.629-16.633 16.629-16.629-16.629-16.633 16.629-16.633-16.629-16.629 16.629 49.895 49.895 16.629-16.633 16.633 16.633 16.629-16.633 33.266 33.266-16.633 16.629 16.633 16.633-16.633 16.629 49.895 49.895 16.629-16.633z"/>
 <path d="m358.72 941.07 33.262 33.262 16.629-16.633-49.891-49.891-16.633 16.629z"/>
 <path d="m392.07 907.72 33.262 33.262 16.633-16.633-49.891-49.891-16.633 16.629z"/>
 <path d="m292.2 941.07-16.629-16.633-16.633-16.629 16.633-16.633-16.633-16.629-16.633-16.633-16.629-16.633-16.633 16.633 16.633 16.629-16.633 16.633 16.633 16.633 16.633 16.629 16.629 16.633 16.633 16.629 16.629 16.633 16.633 16.633 16.629-16.633 16.633 16.633 16.633-16.633-16.633-16.633-16.633-16.629-16.629 16.629z"/>
 <path d="m308.83 891.17-16.633-16.629-16.629 16.629 16.629 16.633 16.633 16.629 16.629 16.633 16.633-16.633-16.633-16.629z"/>
 <path d="m342.18 857.82-16.633-16.629-16.715 16.715 49.895 49.895 16.715-16.719-16.633-16.629z"/>
 <path d="m924.43 242.3-66.523 66.523 33.262 33.262 66.523-66.523-16.629-16.633z"/>
 <path d="m275.57 857.91 16.629 16.633 16.633-16.633-49.895-49.895-16.629 16.633z"/>
 <path d="m308.91 824.56 16.629 16.633 16.633-16.633-49.895-49.895-16.633 16.633 16.633 16.629z"/>
 <path d="m209.04 824.65 16.633-16.633 16.633 16.633-16.633 16.633z"/>
 <path d="m242.3 791.39 16.715-16.715 16.633 16.633-16.715 16.715z"/>
 <path d="m275.65 758.04 16.629-16.629 16.633 16.633-16.629 16.629z"/>
 <path d="m275.57 491.86-16.633 16.629-16.633-16.629-16.629 16.629-16.633-16.629-33.262 33.262 33.262 33.262 16.633-16.629 16.633 16.629 16.629-16.629 16.633 16.629 33.262-33.262z"/>
 <path d="m641.62 92.539-16.633-16.633-16.629 16.633-16.633 16.629 16.633 16.633-16.633 16.629 16.633 16.633-16.633 16.629 16.633 16.633 16.629 16.633 16.633-16.633 16.629-16.633-16.629-16.629 16.629-16.633-16.629-16.629 16.629-16.633z"/>
 <path d="m408.7 325.46 33.262-33.262-66.523-66.523-33.262 33.262 16.629 16.633 16.633 16.629 16.629 16.633z"/>
</svg>
