<?xml version="1.0" encoding="UTF-8"?>
<svg width="1200pt" height="1200pt" version="1.1" viewBox="0 0 1200 1200" xmlns="http://www.w3.org/2000/svg">
 <path d="m976.44 494.1h-47.043v47.039h94.082v-47.039z"/>
 <path d="m929.4 776.46h-23.52v-23.52h-47.039v47.039h23.52v23.52h23.52v23.52h47.039v-47.039h-23.52z"/>
 <path d="m905.88 211.74v23.523h-23.52v23.52h-23.52v47.039h47.039v-23.52h23.52v-23.52h23.52v-47.043z"/>
 <path d="m882.36 682.38v-282.36h-47.039v-47.16h-47.039v-47.039h-47.16v-47.039h-94.078l-23.523-0.003906h-164.76v47.039h-47.039v47.039h-47.039v47.16h-47.039v282.36h47.039v47.039h47.039v47.039h47.039v94.086h23.641v23.52h23.52v23.52h70.559v23.52l23.52 0.003906h47.039v-23.52h70.559v-47.039h23.52v-23.52l0.003906-23.523v-47.039h47.16v-47.039h47.039v-47.039h23.52zm-164.76-353.04v23.52h47.16v23.52h23.52v47.16h47.039v23.52h-47.039v-23.52h-23.52v-47.16h-47.16v-23.52h-23.52v-47.039h23.52zm-94.082 564.72v-70.559h23.52v-70.559h23.52v-70.559h-23.52v23.52l-23.52-0.003906h-70.559v-23.52h-23.52v70.559h23.52v70.562h23.52v70.559h-23.52v-70.559h-23.52v-70.559h-23.52v-70.559h-47.16v-23.641h-23.52v-23.52h23.52v-23.52h23.641v-23.52h47.039v23.52h23.52v70.68h23.52l23.52-0.003906h47.039v-70.68h23.52v-23.52h47.039v23.52h23.52v23.52h23.641v23.52h-23.641v23.641h-47.039v70.559h-23.52v70.562h-23.52v70.559z"/>
 <path d="m694.08 658.74h47.043v-23.52h-23.52v-23.52h-47.043v70.68h23.52z"/>
 <path d="m670.56 1011.8h47.043v-23.52h-70.562v23.52z"/>
 <path d="m670.56 964.62h47.043v-23.52h-70.562v23.52z"/>
 <path d="m623.52 1058.8h-47.039v-23.52h-70.562v23.52h23.523v23.52h141.12v-23.52h23.52v-23.52h-47.039v23.52z"/>
 <path d="m600 1011.8h-23.52v23.52h70.559v-23.52z"/>
 <path d="m600 964.62h-23.52v23.641h70.559v-23.641z"/>
 <path d="m576.48 117.66v94.078h47.039v-94.078z"/>
 <path d="m552.96 1011.8h23.52v-23.52h-70.562v23.52z"/>
 <path d="m552.96 964.62h23.52v-23.52h-70.562v23.52z"/>
 <path d="m529.44 635.22v-23.52h-47.043v23.52h-23.637v23.52h47.156v23.641h23.523z"/>
 <path d="m482.4 1011.8h23.52v23.52h-23.52z"/>
 <path d="m482.4 964.62h23.52v23.641h-23.52z"/>
 <path d="m482.4 917.58h23.52v23.52h-23.52z"/>
 <path d="m294.12 752.94v23.52h-23.52v23.52h-23.523v47.039h47.043v-23.52h23.52v-23.52h23.52v-47.039z"/>
 <path d="m270.6 282.3h23.52v23.52h47.039v-47.039h-23.52v-23.52h-23.52v-23.523h-47.043v47.043h23.523z"/>
 <path d="m270.6 541.14v-47.039h-94.082v47.039z"/>
</svg>
