<?xml version="1.0" encoding="UTF-8"?>
<svg width="1200pt" height="1200pt" version="1.1" viewBox="0 0 1200 1200" xmlns="http://www.w3.org/2000/svg">
 <path d="m858.84 517.74h-23.52v-23.52h-23.52v-23.641h-23.52v-188.16h-23.52v-47.039h-23.641v-47.039h-47.039v-23.641h-47.039v-23.52h-94.078v23.52h-47.039v23.641h-23.52l-23.645-0.003906v47.039h-23.52v47.039h-23.52v188.16h-23.52v23.641h-23.52v23.52h-23.52v23.52h-23.52v446.99h23.52v23.52h23.52v23.52h23.52v23.52h423.59v-23.52h23.52v-23.52h23.52l0.003906-23.504h23.52v-447h-23.52zm-23.52 47.043v70.559h-23.52v-70.559h-23.52v-23.52h-47.16v-23.52h47.16v23.52h23.52v23.52zm0 117.6v23.52h-23.52v-47.039h23.52zm-282.36-352.92h23.52v-23.52h47.039v23.52h23.52v141.12h-94.078zm117.6 376.44v47.039h-23.52v94.199h-23.52v23.52h-23.52v-23.52h-23.52v-94.199h-23.52v-70.559h23.52v-23.52h70.559v23.52h23.52zm-188.16-423.48v-47.039h23.52v-23.52h47.039v-23.52h94.078v23.52h47.039v23.52h23.52v47.039h23.52v188.16h-47.039v-141.12h-23.52v-47.039h-23.52v-23.52h-94.078v23.52h-23.52v47.039h-23.52v141.12h-47.16v-188.16z"/>
</svg>
