<?xml version="1.0" encoding="UTF-8"?>
<svg width="1200pt" height="1200pt" version="1.1" viewBox="0 0 1200 1200" xmlns="http://www.w3.org/2000/svg">
 <path d="m929.4 470.58h-23.52v-23.52h-23.52v-23.52h-23.52v-23.52h-23.52v-23.52h-23.52v-23.52h-23.52v-23.52h-23.52v-23.52h-117.72v-23.52h-23.52v-47.039h23.52l-0.003907-23.645v-23.52h-94.078v47.16h23.52v47.039h-23.52v23.52h-70.559l-23.641 0.003906h-23.52v23.52h-23.52v23.52h-23.52v23.52h-23.52v23.52h-23.52v23.52h-23.52v23.52h-23.52v23.52h-23.52v23.52h-23.52v329.52h23.52v23.52h23.52v23.52h23.52v23.52h23.52v23.52h23.52v23.52h23.52v23.52h23.52v23.52h23.52v23.52h329.52l0.003907-23.508h23.52v-23.52h23.52v-23.52h23.52v-23.52h23.52v-23.52h23.52v-23.52h23.52v-23.52h23.52v-23.52h23.52v-258.84l0.003906-23.527v-47.16h-23.52zm-23.52 47.043v117.72h-70.559v47.039h70.559v141.24h-47.039v47.039h-47.039v47.039l-23.52 0.003907h-23.52v47.039h-141.24v-70.559h-47.039v70.559h-141.24v-47.039h-47.039v-47.039h-47.039v-47.039h-47.039v-141.24h70.559v-47.039h-70.559v-70.559l-0.003906-23.523v-47.16h47.039v-47.039h47.039v-47.039h47.039v-47.039h141.24v70.559h47.039v-70.559h141.24v47.039h47.039v47.039h47.039v47.039h47.039z"/>
 <path d="m694.08 517.62v23.641h-23.52v23.52h-23.52v23.52h-23.52v23.52h-23.52v23.52h-47.039v47.039h-23.52v47.039h47.039v-23.52h47.039v-47.039h23.52v-23.52h23.52v-23.52h23.52v-23.52h23.52v-23.52h23.52l0.003906-23.52v-23.641zm-94.078 164.76h-23.52v-23.52h23.52z"/>
</svg>
