<?xml version="1.0" encoding="UTF-8"?>
<svg width="1200pt" height="1200pt" version="1.1" viewBox="0 0 1200 1200" xmlns="http://www.w3.org/2000/svg">
 <path d="m1011.7 588.24h-870.48v70.559h23.52v70.68h23.52l-0.003906 23.523h23.52v47.039h23.52v23.52h282.36v-23.52h23.52l0.007813-23.52v-23.52h23.52v-23.52h70.559v23.52h23.52v47.039h23.52v23.52h282.36v-23.52h23.52l0.007813-23.52v-23.52h23.52v-23.52h23.641v-70.68h23.52v-70.559h-23.52zm-729.36 141.24v-23.641h-23.52v-23.52h-23.52v-23.52h23.52v23.52h23.52v23.52h23.52v23.641h23.52v23.52h-23.52v-23.52zm70.559-47.16v23.52h23.52v23.641h-23.52v-23.641h-23.52v-23.52h-23.52v-23.52h23.52v23.52zm376.56 47.16v-23.641h-23.641v-23.52h-23.52v-23.52h23.52v23.52h23.641v23.52h23.52v23.641h23.52v23.52h-23.52v-23.52zm70.559-47.16v23.52h23.52v23.641h-23.52v-23.641h-23.52v-23.52h-23.52v-23.52h23.52v23.52z"/>
 <path d="m917.58 564.72h117.72v-47.039h-47.16v-23.52h-47.039v-23.52h-47.043v-23.52h-47.039v-23.52h-47.039v-23.641h-47.039v-23.52h-70.68v23.52h-23.523v47.16h-23.52v70.559h47.043v-23.52h47.16v-23.52h23.52v23.52h47.039v23.52h47.039v23.52h47.039v23.52z"/>
 <path d="m541.14 517.68h23.52v-70.559h-23.52v-47.16h-23.52v-23.52h-70.562v23.52h-47.16v23.641h-47.039v23.52h-47.039v23.52h-47.039v23.52h-47.043v23.52h-47.039v47.039h141.12v-23.52h47.039v-23.52h47.039v-23.52h47.16v-23.52h23.52v23.52h47.043v23.52z"/>
</svg>
