<?xml version="1.0" encoding="UTF-8"?>
<svg width="1200pt" height="1200pt" version="1.1" viewBox="0 0 1200 1200" xmlns="http://www.w3.org/2000/svg">
 <path d="m858.84 553.02h-23.52v-23.52h-23.52v-23.641h-23.52v-305.88h-47.16v305.88h-47.039v-282.23h-47.039l-0.003907-23.641h-94.078v23.641h-47.039v211.68h-23.52l-23.641 0.003906v-235.32h-47.039v258.84h47.039v23.52h47.16v-23.52h47.039v-188.16h23.52v-23.52h47.039v23.52h23.52v235.2h-164.64l-23.641 0.003906h-70.559l-0.003906 23.641h-23.52v23.52h-23.52v23.52h-23.52v447h23.52v23.52h23.52v23.52h23.52v23.52h423.59v-23.52h23.52v-23.52h23.52v-23.52h23.52v-23.52l0.007813-23.52v-399.95h-23.52zm-188.28 188.16v47.039h-23.52v94.199h-23.52v23.52h-23.52v-23.52h-23.52v-94.199h-23.52v-70.559h23.52v-23.52h70.559v23.52h23.52zm164.76-23.52v23.52h-23.52v-47.039h23.52zm0-94.082v47.039h-23.52v-70.559h-23.52v-23.52h-47.16v-23.52h47.16v23.52h23.52v23.52h23.52z"/>
 <path d="m505.92 199.98v-23.52h47.039v-23.52h94.078v23.52h47.039v23.52h47.043v-47.039h-47.043v-23.523h-47.039v-23.52h-94.078v23.52h-47.039v23.523h-47.16v47.039z"/>
</svg>
