<?xml version="1.0" encoding="UTF-8"?>
<svg width="1200pt" height="1200pt" version="1.1" viewBox="0 0 1200 1200" xmlns="http://www.w3.org/2000/svg">
 <path d="m929.4 552.96v23.52h-23.52v47.039h23.52v23.52h47.043v-94.078z"/>
 <path d="m835.32 458.76v117.72h-47.039v47.039h47.039v117.6h47.039v-282.36z"/>
 <path d="m788.28 741.12v47.16h47.039v-47.16z"/>
 <path d="m788.28 458.76h47.039v-47.043h-47.039z"/>
 <path d="m741.24 788.28v47.039h47.043v-47.039z"/>
 <path d="m741.24 411.72h47.043v-47.039h-47.043z"/>
 <path d="m694.08 835.32v47.039h47.156v-47.039z"/>
 <path d="m694.08 364.68h47.156v-47.039h-47.156z"/>
 <path d="m670.56 952.92h-282.36v188.28h23.52v-23.52h23.641v23.52h235.2v-23.52h23.52v23.52h23.641v-188.28zm-258.84 47.039v-23.52h23.641v47.039h-23.641zm0 94.199v-47.16h23.641v47.16zm282.36-23.52v23.52h-23.52v-47.16h23.52zm0-70.68v23.52h-23.52v-47.039h23.52z"/>
 <path d="m647.04 882.36h-70.559v-47.039h-47.039v47.039h-117.72v47.043h282.36v-47.043z"/>
 <path d="m623.52 505.92v23.52h-23.52v23.52h-23.52v23.52h-47.039v-23.52h-23.523v-23.52h-23.52v-23.52h-23.52v-23.52h-23.52v-23.641h-47.16v23.641h23.52v23.52h23.641v23.52h23.52v23.52h23.52v23.52h23.52v23.52h23.523v23.52h47.039v-23.52h23.52v-23.52h23.52v-23.52h23.52v-23.52h23.52v-23.52z"/>
 <path d="m458.88 317.64h70.562v47.039h47.039v-47.039h117.6v-47.039h-282.36v47.039z"/>
 <path d="m411.72 835.32h-47.039v47.039h47.039z"/>
 <path d="m411.72 364.68v-47.039h-47.039v47.039z"/>
 <path d="m388.2 58.801v188.28h329.52v-188.28h-23.641v23.52h-23.52v-23.52h-235.2v23.52h-23.641v-23.52zm23.52 164.76v-47.039h23.641v47.039zm282.36-23.52v23.52h-23.52v-47.039h23.52zm0-94.199v47.039h-23.52v-23.52l-0.003906-23.52zm-258.72 0v47.039h-23.641v-47.039z"/>
 <path d="m364.68 788.28h-47.039v47.039h47.039z"/>
 <path d="m364.68 411.72v-47.039h-47.039v47.039z"/>
 <path d="m317.64 741.12h-47.039v47.16h47.039z"/>
 <path d="m317.64 458.76v-47.043h-47.039v47.043z"/>
 <path d="m270.6 694.08v-70.559h47.039v-47.039h-47.039v-117.72h-47.043v282.36h47.043z"/>
</svg>
